<svg height="1066.6666pt" viewBox="-33 -33 1066.6666 1066.6666" width="1066.6666pt" xmlns="http://www.w3.org/2000/svg"><path style="fill:#323232;" d="m348.441406 497.980469c0 72.484375 51.851563 133.09375 120.402344 146.691406v-293.382813c-68.550781 13.597657-120.402344 74.203126-120.402344 146.691407zm0 0"/><path style="fill:#ffffff;" d="m497.980469 243.394531c-140.378907 0-254.585938 114.207031-254.585938 254.585938 0 140.378906 114.207031 254.582031 254.585938 254.582031 140.375 0 254.582031-114.203125 254.582031-254.582031 0-140.378907-114.207031-254.585938-254.582031-254.585938zm29.140625 462.402344h-29.140625c-114.585938 0-207.8125-93.222656-207.8125-207.816406 0-114.597657 93.226562-207.820313 207.8125-207.820313h29.140625zm0 0"/><path style="fill:#ffffff;" d="m907.597656 579.488281 90.382813-81.507812-90.382813-81.503907 52.472656-109.914062-114.832031-40.585938 6.304688-121.5625-121.558594 6.304688-40.574219-114.828125-109.921875 52.46875-81.507812-90.378906-81.503907 90.378906-109.914062-52.46875-40.585938 114.828125-121.5625-6.304688 6.3125 121.5625-114.835937 40.570313 52.46875 109.929687-90.378906 81.503907 90.378906 81.507812-52.46875 109.910157 114.828125 40.582031-6.304688 121.5625 121.558594-6.304688 40.574219 114.832031 109.929687-52.472656 81.503907 90.382813 81.507812-90.382813 109.910157 52.472656 40.582031-114.832031 121.5625 6.304688-6.308594-121.5625 114.835937-40.570313zm-409.617187 231.351563c-172.511719 0-312.863281-140.351563-312.863281-312.859375 0-172.511719 140.351562-312.863281 312.863281-312.863281 172.507812 0 312.859375 140.351562 312.859375 312.863281 0 172.507812-140.351563 312.859375-312.859375 312.859375zm0 0"/></svg>